<?xml version="1.0" encoding="utf-8"?>
<!-- Generator: Adobe Illustrator 19.0.1, SVG Export Plug-In . SVG Version: 6.00 Build 0)  -->
<svg version="1.1" id="Layer_1" xmlns="http://www.w3.org/2000/svg" xmlns:xlink="http://www.w3.org/1999/xlink" x="0px" y="0px"
	 viewBox="0 0 80 80" style="enable-background:new 0 0 80 80;" xml:space="preserve">
<style type="text/css">
	.st0{fill:#58595B;}
	.st1{fill:#931933;}
	.st2{fill:#231F20;}
</style>
<g>
	<g>
		<path class="st0" d="M42.4,49.8l-4.6-17.6c0,0,0,0-0.1,0c0,0,0,0,0.1,0l-5.6-21.4c-1.1-0.1-2.2-0.2-3.4-0.2c-4,0-7.5,1.1-10.3,3.2
			c-2.8,2.1-4.2,4.8-4,8.2l0.1,0h9.7c0-1,0.4-2,1.3-2.8c0.9-0.7,2-1,3.2-1c1.7,0,3,0.5,4,1.4c1,0.9,1.5,2.1,1.5,3.4
			c0,1.7-0.5,3.3-1.5,4.2c-1,1-2.4,1.7-4.1,1.7H24v7h4.8c2,0,3.5,0.5,4.6,1.5c1.1,1,1.6,2.5,1.6,4.6c0,1.5-0.6,2.7-1.7,3.7
			c-1.2,1-2.6,1.5-4.4,1.5c-1.5,0-2.7-0.6-3.7-1.6c-1-0.9-1.5-1.7-1.5-3.7H14L14,42.4c-0.1,4,1.4,7.2,4.4,9.3
			c3,2.1,6.5,3.2,10.6,3.2c4.7,0,8.6-1.1,11.6-3.4C41.3,51,41.9,50.4,42.4,49.8z"/>
		<path class="st1" d="M61.8,15c-2.8-2.9-6.4-4.4-10.9-4.4c-4.5,0-8.2,1.5-10.9,4.4c-0.6,0.7-1.2,1.4-1.7,2.3l9.8,37.5
			c0.9,0.1,1.9,0.2,2.9,0.2c4.5,0,8.2-1.5,11-4.4c2.7-2.9,4.2-7,4.2-12.1V27C66,21.9,64.5,17.9,61.8,15z M56,39.1
			c0,2.7-0.5,4.7-1.4,6.1c-0.9,1.4-2.1,2.1-3.7,2.1c-1.6,0-2.8-0.7-3.7-2.1c-0.9-1.4-1.2-3.4-1.2-6.1V26.4c0-2.6,0.3-4.6,1.2-6
			c0.9-1.4,2-2.1,3.6-2.1c1.6,0,2.9,0.7,3.8,2.1c0.9,1.4,1.4,3.4,1.4,6V39.1z"/>
	</g>
	<g>
		<path class="st2" d="M29.9,70.7v-0.6c-0.4,0.5-0.9,0.7-1.7,0.7c-1.2,0-2.2-0.9-2.2-2.7c0-1.8,1.1-2.7,2.7-2.7
			c0.5,0,0.9,0.1,1.2,0.3v-0.8c0-0.8-0.3-1.2-1.1-1.2c-0.5,0-1,0.1-1.6,0.5l-0.6-1.1c0.7-0.5,1.6-0.8,2.3-0.8c1.8,0,2.4,0.6,2.4,2.4
			v5.9H29.9z M29.9,67.1c-0.4-0.2-0.7-0.3-1.2-0.3c-0.7,0-1.2,0.4-1.2,1.3c0,1,0.4,1.4,1,1.4s1.1-0.3,1.4-0.8V67.1z"/>
		<path class="st2" d="M37.6,70.7v-5c0-1.3-0.3-1.9-1-1.9c-0.5,0-0.9,0.3-1.2,0.7v6.2h-1.5v-8.1h1.5v0.6c0.3-0.4,0.9-0.7,1.6-0.7
			c1.6,0,2.1,1,2.1,3.1v5.3H37.6z"/>
		<path class="st2" d="M44.2,70.8c-1.7,0-2.9-1.3-2.9-4.2s1.1-4.3,2.9-4.3c1.7,0,2.9,1.4,2.9,4.2C47.2,69.4,46,70.8,44.2,70.8z
			 M44.2,63.8c-0.9,0-1.4,1-1.4,2.8s0.5,2.8,1.4,2.8c0.9,0,1.4-1.1,1.4-2.8C45.7,64.8,45.1,63.8,44.2,63.8z"/>
		<path class="st2" d="M51.5,70.8c-0.9,0-1.8-0.3-2.5-0.9l0.6-1.2c0.7,0.5,1.3,0.7,1.9,0.7c0.7,0,1.1-0.4,1.1-0.9
			c0-0.6-0.4-0.9-1.6-1.5c-1-0.6-1.7-1.1-1.7-2.4c0-1.4,0.9-2.3,2.3-2.3c0.8,0,1.6,0.3,2.2,0.8l-0.6,1.3c-0.5-0.4-1.1-0.6-1.6-0.6
			c-0.6,0-0.8,0.3-0.8,0.7c0,0.5,0.2,0.7,1.3,1.4c1.2,0.7,1.9,1.2,1.9,2.6C54,70,53,70.8,51.5,70.8z"/>
	</g>
</g>
</svg>
