<?xml version="1.0" encoding="utf-8"?>
<!-- Generator: Adobe Illustrator 19.0.1, SVG Export Plug-In . SVG Version: 6.00 Build 0)  -->
<svg version="1.1" id="Layer_1" xmlns="http://www.w3.org/2000/svg" xmlns:xlink="http://www.w3.org/1999/xlink" x="0px" y="0px"
	 viewBox="0 0 230 80" style="enable-background:new 0 0 230 80;" xml:space="preserve">
<style type="text/css">
	.st0{fill:#58595B;}
	.st1{fill:#931933;}
	.st2{fill:#231F20;}
	.st3{fill:none;stroke:#000000;stroke-width:1.0959;stroke-miterlimit:10;}
</style>
<g>
	<g>
		<path class="st0" d="M72,34.6H60.5c0.5-5.9,2.5-8.7,5.7-8.7C69.8,26,71.8,29.6,72,34.6 M78.4,37.8c0-11.9-5.2-17.7-12-17.7
			c-7.2,0-12.2,6-12.2,18c0,10.7,4.4,17.6,12.6,17.6c4.4,0,7.8-2,10.1-4.6l-3.8-4c-2,1.8-3.3,2.5-6.2,2.5c-3.6,0-6.1-2.9-6.4-9.7
			h17.9C78.4,39.4,78.4,38.4,78.4,37.8z"/>
		<path class="st0" d="M124.9,38c0,7.1-2.1,11.8-6,11.8c-3.9,0-6-4-6-11.8s2-11.8,5.9-11.8C122.8,26.1,124.9,30.2,124.9,38
			 M131.2,37.8c0-11.9-5-17.7-12.2-17.7c-7.6,0-12.4,6-12.4,18c0,12,5,17.6,12.1,17.6C126.3,55.7,131.2,49.8,131.2,37.8z"/>
		<path class="st0" d="M156.3,53v-20c0-8.6-2.3-12.8-8.9-12.8c-2.9,0-5.3,1.3-6.6,3.1v-2.3h-6.2V55l6.2-2.7V29.2
			c1.2-2,3.1-3.1,5.1-3.1c3.1,0,4.2,2.3,4.2,7.9v21L156.3,53"/>
		<path class="st0" d="M97.1,46.7c-1.1,1.8-3,3.1-5.1,3.1c-3.6,0-5.3-3.7-5.3-12.6c0-8.1,1.7-11.3,4.9-11.3c2,0,4,1,5.4,3.1V46.7
			 M103.4,52.3V7.6l-6.2,3.3v11.8c-1.7-1.8-3.5-2.5-5.9-2.5c-6.8,0-10.7,6.1-10.7,17.4c0,13.6,4.1,18.2,10.3,18.2
			c3.1,0,4.7-1.2,6.4-3V55L103.4,52.3z"/>
		<path class="st1" d="M53.8,21.1l-7.5,2.7l-3.5,15.9c-0.5,2.3-1.5,7.2-1.8,8.9c-0.3-1.7-1.3-6.5-1.9-8.8L32,10.4l-7.5-2.7L37.1,56
			l8.4-2.7L53.8,21.1"/>
		<path class="st0" d="M3,42.5l7.5-2.7l8.7-3.2l-5.6-2.1l-2.1,0.8L14,23.8c0.5-2.3,1.5-7.2,1.8-8.9c0.3,1.7,1.3,6.5,1.9,8.8
			l7.2,29.5l7.5,2.7L19.7,7.6l-8.4,2.7L3,42.5"/>
		<g>
			<path class="st2" d="M7,61.3v9.4H5.5v-9.4h-2v-1.5H9v1.5H7z"/>
			<path class="st2" d="M15.4,67.1h-4.3c0.1,1.6,0.7,2.3,1.5,2.3c0.7,0,1-0.2,1.5-0.6l0.9,0.9c-0.6,0.6-1.4,1.1-2.4,1.1
				c-1.9,0-3-1.6-3-4.2c0-2.9,1.2-4.3,2.9-4.3c1.6,0,2.9,1.4,2.9,4.2C15.4,66.7,15.4,66.9,15.4,67.1z M12.5,63.8
				c-0.8,0-1.2,0.7-1.4,2.1h2.7C13.8,64.6,13.3,63.8,12.5,63.8z"/>
			<path class="st2" d="M20.2,70.8c-1.7,0-2.8-1.3-2.8-4.2c0-2.9,1.1-4.3,2.9-4.3c1.2,0,1.8,0.6,2.3,1.4l-1.1,0.9
				c-0.4-0.7-0.7-0.9-1.3-0.9c-0.9,0-1.3,1-1.3,2.8c0,1.7,0.4,2.8,1.4,2.8c0.5,0,0.8-0.3,1.2-0.9l1.1,0.9
				C22,70.3,21.3,70.8,20.2,70.8z"/>
			<path class="st2" d="M28.4,70.7v-5c0-1.3-0.3-1.9-1-1.9c-0.5,0-0.9,0.3-1.2,0.7v6.2h-1.5v-8.1h1.5v0.6c0.3-0.4,0.9-0.7,1.6-0.7
				c1.6,0,2.1,1,2.1,3.1v5.3H28.4z"/>
			<path class="st2" d="M34.9,70.8c-1.7,0-2.9-1.3-2.9-4.2c0-2.9,1.1-4.3,2.9-4.3c1.7,0,2.9,1.4,2.9,4.2
				C37.9,69.4,36.7,70.8,34.9,70.8z M34.9,63.8c-0.9,0-1.4,1-1.4,2.8s0.5,2.8,1.4,2.8s1.4-1.1,1.4-2.8
				C36.4,64.8,35.9,63.8,34.9,63.8z"/>
			<path class="st2" d="M40.2,70.7V60.1l1.5-0.8v11.3H40.2z"/>
			<path class="st2" d="M46.8,70.8c-1.7,0-2.9-1.3-2.9-4.2c0-2.9,1.1-4.3,2.9-4.3c1.7,0,2.9,1.4,2.9,4.2
				C49.8,69.4,48.6,70.8,46.8,70.8z M46.8,63.8c-0.9,0-1.4,1-1.4,2.8s0.5,2.8,1.4,2.8s1.4-1.1,1.4-2.8
				C48.3,64.8,47.8,63.8,46.8,63.8z"/>
			<path class="st2" d="M53.9,73.7l-0.4-1.2c1.8-0.2,2.2-0.8,2.2-2.3v-0.1c-0.4,0.4-0.8,0.7-1.5,0.7c-1.5,0-2.5-1.1-2.5-4.3
				c0-2.7,0.9-4.2,2.6-4.2c0.6,0,1,0.2,1.4,0.6v-0.4h1.5V70C57.2,72.3,56.3,73.4,53.9,73.7z M55.7,64.5c-0.3-0.5-0.8-0.7-1.3-0.7
				c-0.8,0-1.2,0.8-1.2,2.7c0,2.1,0.4,3,1.3,3c0.5,0,0.9-0.3,1.2-0.7V64.5z"/>
			<path class="st2" d="M60.5,61.3c-0.5,0-0.9-0.4-0.9-0.9c0-0.5,0.4-0.9,0.9-0.9c0.5,0,0.9,0.4,0.9,0.9
				C61.4,60.8,61,61.3,60.5,61.3z M59.7,70.7v-8.1h1.5v8.1H59.7z"/>
			<path class="st2" d="M67.3,70.7v-0.6c-0.4,0.5-0.9,0.7-1.7,0.7c-1.2,0-2.2-0.9-2.2-2.7c0-1.8,1.1-2.7,2.7-2.7
				c0.5,0,0.9,0.1,1.2,0.3v-0.8c0-0.8-0.3-1.2-1.1-1.2c-0.5,0-1,0.1-1.6,0.5L64,63.1c0.7-0.5,1.6-0.8,2.3-0.8c1.8,0,2.4,0.6,2.4,2.4
				v5.9H67.3z M67.3,67.1c-0.4-0.2-0.7-0.3-1.2-0.3c-0.7,0-1.2,0.4-1.2,1.3c0,1,0.4,1.4,1,1.4c0.6,0,1.1-0.3,1.4-0.8V67.1z"/>
			<path class="st2" d="M83.6,67.1h-4.3c0.1,1.6,0.7,2.3,1.5,2.3c0.7,0,1-0.2,1.5-0.6l0.9,0.9c-0.6,0.6-1.4,1.1-2.4,1.1
				c-1.9,0-3-1.6-3-4.2c0-2.9,1.2-4.3,2.9-4.3c1.6,0,2.9,1.4,2.9,4.2C83.7,66.7,83.7,66.9,83.6,67.1z M80.8,63.8
				c-0.8,0-1.2,0.7-1.4,2.1h2.7C82.1,64.6,81.6,63.8,80.8,63.8z"/>
			<path class="st2" d="M93,70.7v-5c0-1.3-0.1-1.9-0.9-1.9c-0.5,0-0.9,0.3-1.2,0.7v6.2h-1.5v-5c0-1.3-0.1-1.9-0.9-1.9
				c-0.5,0-0.9,0.3-1.2,0.7v6.2h-1.5v-8.1h1.5v0.6c0.3-0.4,0.8-0.7,1.5-0.7c0.8,0,1.3,0.3,1.6,0.9c0.6-0.7,1.2-0.9,1.9-0.9
				c1.6,0,2,1.1,2,3.2v5.1H93z"/>
			<path class="st2" d="M106.2,70.8c-1.4,0-2.2-0.7-2.9-1.8l1.2-1c0.6,0.9,1.1,1.2,1.8,1.2c0.8,0,1.3-0.5,1.3-1.4
				c0-0.8-0.4-1.3-1.8-2.3c-1.2-0.8-2.2-1.6-2.2-3.3c0-1.6,1.1-2.7,2.7-2.7c1.3,0,2,0.5,2.6,1.5l-1.1,1c-0.5-0.7-0.9-0.9-1.6-0.9
				c-0.7,0-1.1,0.5-1.1,1.1c0,0.8,0.4,1.3,1.6,2c1.3,0.9,2.4,1.7,2.4,3.5C109.2,69.6,108.2,70.8,106.2,70.8z"/>
			<path class="st2" d="M116.8,67.1h-4.3c0.1,1.6,0.7,2.3,1.5,2.3c0.7,0,1-0.2,1.5-0.6l0.9,0.9c-0.6,0.6-1.4,1.1-2.4,1.1
				c-1.9,0-3-1.6-3-4.2c0-2.9,1.2-4.3,2.9-4.3c1.6,0,2.9,1.4,2.9,4.2C116.8,66.7,116.8,66.9,116.8,67.1z M113.9,63.8
				c-0.8,0-1.2,0.7-1.4,2.1h2.7C115.2,64.6,114.7,63.8,113.9,63.8z"/>
			<path class="st2" d="M122.7,64.1c-0.3-0.2-0.6-0.2-1-0.2c-0.4,0-0.8,0.1-1.2,0.6v6.2H119v-8.1h1.5v0.6c0.3-0.4,0.8-0.7,1.4-0.7
				c0.5,0,0.9,0.1,1.1,0.3L122.7,64.1z"/>
			<path class="st2" d="M128.1,70.7h-1.7l-2-8.1h1.5l1,4.4c0.1,0.5,0.4,1.7,0.4,2c0.1-0.4,0.3-1.6,0.4-2.1l0.9-4.4h1.5L128.1,70.7z"
				/>
			<path class="st2" d="M132.9,61.3c-0.5,0-0.9-0.4-0.9-0.9c0-0.5,0.4-0.9,0.9-0.9c0.5,0,0.9,0.4,0.9,0.9
				C133.8,60.8,133.4,61.3,132.9,61.3z M132.2,70.7v-8.1h1.5v8.1H132.2z"/>
			<path class="st2" d="M138.9,70.8l-0.1,0.6c0.2-0.1,0.4-0.1,0.7-0.1c0.5,0,1,0.3,1,1.1c0,0.9-0.6,1.3-1.7,1.3
				c-0.6,0-1.1-0.2-1.6-0.4l0.3-0.5c0.4,0.2,0.8,0.3,1.1,0.3c0.5,0,0.8-0.2,0.8-0.6c0-0.3-0.2-0.5-0.4-0.5c-0.2,0-0.4,0-0.6,0.2
				l-0.5-0.2l0.2-1.1c-1.3-0.3-2.2-1.6-2.2-4.1c0-2.9,1.1-4.3,2.9-4.3c1.2,0,1.8,0.6,2.3,1.4l-1.1,0.9c-0.4-0.7-0.7-0.9-1.3-0.9
				c-0.9,0-1.3,1-1.3,2.8c0,1.7,0.4,2.8,1.4,2.8c0.5,0,0.8-0.3,1.2-0.9l1.1,0.9C140.6,70.2,140,70.8,138.9,70.8z"/>
			<path class="st2" d="M145.9,70.8c-1.7,0-2.9-1.3-2.9-4.2c0-2.9,1.1-4.3,2.9-4.3c1.7,0,2.9,1.4,2.9,4.2
				C148.9,69.4,147.7,70.8,145.9,70.8z M145.9,63.8c-0.9,0-1.4,1-1.4,2.8s0.5,2.8,1.4,2.8c0.9,0,1.4-1.1,1.4-2.8
				C147.4,64.8,146.8,63.8,145.9,63.8z"/>
			<path class="st2" d="M153,70.8c-0.9,0-1.8-0.3-2.5-0.9l0.6-1.2c0.7,0.5,1.3,0.7,1.9,0.7c0.7,0,1.1-0.4,1.1-0.9
				c0-0.6-0.4-0.9-1.6-1.5c-1-0.6-1.7-1.1-1.7-2.4c0-1.4,0.9-2.3,2.3-2.3c0.8,0,1.6,0.3,2.2,0.8l-0.6,1.3c-0.5-0.4-1.1-0.6-1.6-0.6
				c-0.6,0-0.8,0.3-0.8,0.7c0,0.5,0.2,0.7,1.3,1.4c1.2,0.7,1.9,1.2,1.9,2.6C155.5,70,154.6,70.8,153,70.8z"/>
		</g>
	</g>
	<g>
		<path class="st0" d="M207.8,52.6l-3.7-14.1c0,0,0,0-0.1,0c0,0,0,0,0,0l-4.5-17.1c-0.9-0.1-1.7-0.2-2.7-0.2c-3.2,0-6,0.9-8.2,2.6
			c-2.3,1.7-3.3,3.7-3.2,6.4l0-0.1h7.8c0-1,0.4-1.5,1.1-2.1c0.7-0.6,1.6-0.8,2.6-0.8c1.3,0,2.4,0.4,3.2,1.2c0.8,0.8,1.2,1.7,1.2,2.8
			c0,1.4-0.4,2.7-1.2,3.5c-0.8,0.8-1.9,1.4-3.3,1.4H193v5h3.9c1.6,0,2.8,0.7,3.7,1.4c0.9,0.8,1.3,2.1,1.3,3.8c0,1.2-0.5,2.3-1.4,3.1
			c-0.9,0.8-2.1,1.2-3.6,1.2c-1.2,0-2.2-0.2-3-0.9c-0.8-0.7-1.2-1.6-1.2-2.6H185l0,0c-0.1,3.2,1.1,5.6,3.5,7.3
			c2.4,1.7,5.2,2.5,8.5,2.5c3.8,0,6.9-0.9,9.3-2.7C206.9,53.6,207.4,53.1,207.8,52.6z"/>
		<path class="st1" d="M223.5,24.7c-2.2-2.3-5.2-3.5-8.9-3.5c-3.6,0-6.6,1.2-8.8,3.5c-0.5,0.6-1,1.2-1.4,1.8l7.8,30.1
			c0.7,0.1,1.5,0.2,2.3,0.2c3.6,0,6.7-1.2,8.9-3.5c2.2-2.3,3.5-5.6,3.5-9.7v-9.2C227,30.2,225.7,27,223.5,24.7z M219,44
			c0,2.2-0.6,3.8-1.3,4.9c-0.7,1.1-1.8,1.7-3.1,1.7c-1.3,0-2.1-0.6-2.8-1.7c-0.7-1.1-0.9-2.7-0.9-4.9V33.8c0-2.1,0.1-3.7,0.8-4.8
			c0.7-1.1,1.6-1.7,2.8-1.7c1.3,0,2.4,0.6,3.1,1.7c0.7,1.1,1.2,2.7,1.2,4.8V44z"/>
	</g>
	<g>
		<path class="st2" d="M195.9,70.7v-0.6c-0.4,0.5-0.9,0.7-1.7,0.7c-1.2,0-2.2-0.9-2.2-2.7c0-1.8,1.1-2.7,2.7-2.7
			c0.5,0,0.9,0.1,1.2,0.3v-0.8c0-0.8-0.3-1.2-1.1-1.2c-0.5,0-1,0.1-1.6,0.5l-0.6-1.1c0.7-0.5,1.6-0.8,2.3-0.8c1.8,0,2.4,0.6,2.4,2.4
			v5.9H195.9z M195.9,67.1c-0.4-0.2-0.7-0.3-1.2-0.3c-0.7,0-1.2,0.4-1.2,1.3c0,1,0.4,1.4,1,1.4s1.1-0.3,1.4-0.8V67.1z"/>
		<path class="st2" d="M203.6,70.7v-5c0-1.3-0.3-1.9-1-1.9c-0.5,0-0.9,0.3-1.2,0.7v6.2h-1.5v-8.1h1.5v0.6c0.3-0.4,0.9-0.7,1.6-0.7
			c1.6,0,2.1,1,2.1,3.1v5.3H203.6z"/>
		<path class="st2" d="M210.2,70.8c-1.7,0-2.9-1.3-2.9-4.2s1.1-4.3,2.9-4.3c1.7,0,2.9,1.4,2.9,4.2C213.2,69.4,212,70.8,210.2,70.8z
			 M210.2,63.8c-0.9,0-1.4,1-1.4,2.8s0.5,2.8,1.4,2.8c0.9,0,1.4-1.1,1.4-2.8C211.7,64.8,211.1,63.8,210.2,63.8z"/>
		<path class="st2" d="M217.5,70.8c-0.9,0-1.8-0.3-2.5-0.9l0.6-1.2c0.7,0.5,1.3,0.7,1.9,0.7c0.7,0,1.1-0.4,1.1-0.9
			c0-0.6-0.4-0.9-1.6-1.5c-1-0.6-1.7-1.1-1.7-2.4c0-1.4,0.9-2.3,2.3-2.3c0.8,0,1.6,0.3,2.2,0.8l-0.6,1.3c-0.5-0.4-1.1-0.6-1.6-0.6
			c-0.6,0-0.8,0.3-0.8,0.7c0,0.5,0.2,0.7,1.3,1.4c1.2,0.7,1.9,1.2,1.9,2.6C220,70,219,70.8,217.5,70.8z"/>
	</g>
	<line class="st3" x1="160.8" y1="2.7" x2="181.4" y2="78.3"/>
</g>
</svg>
