<?xml version="1.0" encoding="utf-8"?>
<!-- Generator: Adobe Illustrator 18.1.1, SVG Export Plug-In . SVG Version: 6.00 Build 0)  -->
<svg version="1.1" id="Layer_1" xmlns="http://www.w3.org/2000/svg" xmlns:xlink="http://www.w3.org/1999/xlink" x="0px" y="0px"
	 viewBox="0 0 234 102" enable-background="new 0 0 234 102" xml:space="preserve">
<g>
	<path fill="#58595B" d="M105.5,42H88.1c0.8-8.9,3.8-13.1,8.7-13.1C102.1,28.9,105.2,34.3,105.5,42 M115.2,46.8
		c0-18-7.9-26.8-18.2-26.8C86,20,78.5,29.1,78.5,47.2c0,16.2,6.7,26.7,19,26.7c6.6,0,11.8-3,15.4-6.9l-5.8-6c-3,2.8-5,3.8-9.4,3.8
		c-5.5,0-9.2-4.4-9.7-14.7h27.1C115.2,49.1,115.2,47.7,115.2,46.8z"/>
	<path fill="#58595B" d="M185.5,47c0,10.7-3.2,17.8-9.1,17.8c-5.9,0-9.1-6-9.1-17.8s3.1-17.9,9-17.9C182.3,29.1,185.5,35.3,185.5,47
		 M195.1,46.8c0-18-7.6-26.8-18.5-26.8c-11.5,0-18.7,9.1-18.7,27.2c0,18.1,7.6,26.7,18.3,26.7C187.6,73.8,195.1,64.9,195.1,46.8z"/>
	<path fill="#58595B" d="M232.9,69.7V39.4c0-13-3.5-19.4-13.5-19.4c-4.4,0-8,2-10,4.6v-3.5H200v51.7l9.5-4.1v-35
		c1.9-3.1,4.7-4.7,7.7-4.7c4.7,0,6.4,3.4,6.4,12v31.8L232.9,69.7"/>
	<path fill="#58595B" d="M143.5,60.3c-1.7,2.8-4.5,4.7-7.7,4.7c-5.4,0-8-5.6-8-19.1c0-12.2,2.6-17,7.5-17c3,0,6.1,1.5,8.2,4.6V60.3
		 M153,68.7V1l-9.5,4.9v17.9c-2.6-2.7-5.3-3.8-9-3.8c-10.2,0-16.2,9.2-16.2,26.4c0,20.6,6.2,27.5,15.6,27.5c4.6,0,7.2-1.9,9.6-4.5
		v3.4L153,68.7z"/>
	<path fill="#931933" d="M78,21.5l-11.3,4.1l-5.3,24.1c-0.7,3.4-2.3,11-2.7,13.5c-0.4-2.5-2-9.8-2.8-13.3L45,5.2L33.7,1.1l19,73.2
		l12.7-4.1L78,21.5"/>
	<path fill="#58595B" d="M1.1,53.8l11.3-4.1l13.2-4.9l-8.5-3.2l-3.2,1.1l3.8-17.2c0.7-3.4,2.3-11,2.7-13.5c0.4,2.5,2,9.8,2.8,13.3
		L34,70.1l11.3,4.1l-19-73.2L13.6,5.2L1.1,53.8"/>
	<g>
		<path fill="#231F20" d="M7.2,82.3v14.2H4.9V82.3h-3V80h8.4v2.3H7.2z"/>
		<path fill="#231F20" d="M19.8,91.1h-6.5c0.1,2.4,1,3.5,2.3,3.5c1,0,1.5-0.3,2.2-0.9l1.4,1.4c-0.8,0.9-2.1,1.6-3.7,1.6
			c-2.9,0-4.5-2.5-4.5-6.4c0-4.3,1.8-6.5,4.4-6.5c2.5,0,4.3,2.1,4.3,6.4C19.8,90.5,19.8,90.8,19.8,91.1z M15.4,86
			c-1.1,0-1.9,1-2.1,3.1h4.2C17.4,87.3,16.7,86,15.4,86z"/>
		<path fill="#231F20" d="M27,96.7c-2.6,0-4.3-2-4.3-6.4c0-4.3,1.6-6.5,4.4-6.5c1.8,0,2.8,1,3.5,2.2L29,87.5c-0.6-1-1.1-1.4-1.9-1.4
			c-1.4,0-2,1.6-2,4.3c0,2.6,0.6,4.2,2.1,4.2c0.8,0,1.3-0.4,1.9-1.4l1.6,1.3C29.8,95.8,28.8,96.7,27,96.7z"/>
		<path fill="#231F20" d="M39.4,96.5v-7.6c0-2-0.4-2.9-1.5-2.9c-0.7,0-1.4,0.4-1.8,1.1v9.3h-2.3V84.2h2.3V85
			c0.5-0.6,1.3-1.1,2.4-1.1c2.4,0,3.2,1.5,3.2,4.6v8H39.4z"/>
		<path fill="#231F20" d="M49.3,96.7c-2.6,0-4.4-2-4.4-6.4c0-4.3,1.7-6.5,4.5-6.5c2.6,0,4.4,2.1,4.4,6.4
			C53.8,94.6,52,96.7,49.3,96.7z M49.4,86.1c-1.4,0-2.1,1.5-2.1,4.3c0,2.8,0.8,4.2,2.2,4.2s2.2-1.7,2.2-4.2
			C51.6,87.5,50.8,86.1,49.4,86.1z"/>
		<path fill="#231F20" d="M57.3,96.5V80.5l2.3-1.2v17.1H57.3z"/>
		<path fill="#231F20" d="M67.3,96.7c-2.6,0-4.4-2-4.4-6.4c0-4.3,1.7-6.5,4.5-6.5c2.6,0,4.4,2.1,4.4,6.4
			C71.9,94.6,70.1,96.7,67.3,96.7z M67.4,86.1c-1.4,0-2.1,1.5-2.1,4.3c0,2.8,0.8,4.2,2.2,4.2s2.2-1.7,2.2-4.2
			C69.6,87.5,68.8,86.1,67.4,86.1z"/>
		<path fill="#231F20" d="M78,101l-0.6-1.8c2.7-0.4,3.4-1.1,3.4-3.5v-0.1c-0.6,0.7-1.2,1.1-2.3,1.1c-2.2,0-3.7-1.6-3.7-6.5
			c0-4.1,1.4-6.3,3.9-6.3c0.9,0,1.5,0.3,2.1,0.9v-0.7H83v11.2C83,98.9,81.7,100.6,78,101z M80.8,87.1c-0.5-0.8-1.2-1.1-1.9-1.1
			c-1.2,0-1.8,1.2-1.8,4.1c0,3.2,0.6,4.6,1.9,4.6c0.8,0,1.4-0.5,1.8-1.1V87.1z"/>
		<path fill="#231F20" d="M88,82.2c-0.8,0-1.4-0.6-1.4-1.4c0-0.8,0.6-1.4,1.4-1.4c0.8,0,1.4,0.6,1.4,1.4
			C89.4,81.6,88.8,82.2,88,82.2z M86.9,96.5V84.2h2.3v12.3H86.9z"/>
		<path fill="#231F20" d="M98.3,96.5v-0.8c-0.6,0.7-1.4,1.1-2.5,1.1c-1.8,0-3.4-1.4-3.4-4.1c0-2.7,1.7-4,4-4c0.8,0,1.4,0.2,1.9,0.4
			v-1.2c0-1.2-0.4-1.8-1.6-1.8c-0.8,0-1.5,0.2-2.4,0.8l-1-1.7c1.1-0.8,2.4-1.2,3.5-1.2c2.7,0,3.7,0.9,3.7,3.7v8.9H98.3z M98.3,91.1
			c-0.5-0.3-1-0.5-1.9-0.5c-1.1,0-1.8,0.6-1.8,1.9c0,1.5,0.6,2.1,1.5,2.1c1,0,1.7-0.4,2.1-1.1V91.1z"/>
		<path fill="#231F20" d="M123.1,91.1h-6.5c0.1,2.4,1,3.5,2.3,3.5c1,0,1.5-0.3,2.2-0.9l1.4,1.4c-0.8,0.9-2.1,1.6-3.7,1.6
			c-2.9,0-4.5-2.5-4.5-6.4c0-4.3,1.8-6.5,4.4-6.5c2.5,0,4.3,2.1,4.3,6.4C123.1,90.5,123.1,90.8,123.1,91.1z M118.7,86
			c-1.2,0-1.9,1-2.1,3.1h4.2C120.7,87.3,120,86,118.7,86z"/>
		<path fill="#231F20" d="M137.2,96.5v-7.6c0-2-0.2-2.9-1.3-2.9c-0.7,0-1.4,0.4-1.8,1.1v9.3h-2.3v-7.6c0-2-0.2-2.9-1.3-2.9
			c-0.7,0-1.4,0.4-1.8,1.1v9.3h-2.3V84.2h2.3V85c0.5-0.6,1.2-1.1,2.3-1.1c1.2,0,2,0.4,2.5,1.3c0.9-1,1.8-1.3,2.9-1.3
			c2.5,0,3.1,1.6,3.1,4.9v7.7H137.2z"/>
		<path fill="#231F20" d="M157.3,96.7c-2.1,0-3.4-1.1-4.3-2.7l1.8-1.5c0.9,1.4,1.7,1.8,2.7,1.8c1.2,0,2-0.8,2-2.1
			c0-1.3-0.5-2-2.7-3.4c-1.9-1.2-3.3-2.4-3.3-5c0-2.4,1.6-4.1,4.2-4.1c1.9,0,3,0.8,4,2.2l-1.7,1.5c-0.8-1.1-1.3-1.4-2.4-1.4
			c-1.1,0-1.7,0.7-1.7,1.7c0,1.2,0.6,1.9,2.4,3.1c2,1.3,3.7,2.6,3.7,5.3C161.8,94.9,160.2,96.7,157.3,96.7z"/>
		<path fill="#231F20" d="M173.2,91.1h-6.5c0.1,2.4,1,3.5,2.3,3.5c1,0,1.5-0.3,2.2-0.9l1.4,1.4c-0.8,0.9-2.1,1.6-3.7,1.6
			c-2.9,0-4.5-2.5-4.5-6.4c0-4.3,1.8-6.5,4.4-6.5c2.5,0,4.3,2.1,4.3,6.4C173.3,90.5,173.3,90.8,173.2,91.1z M168.9,86
			c-1.2,0-1.9,1-2.1,3.1h4.2C170.9,87.3,170.1,86,168.9,86z"/>
		<path fill="#231F20" d="M182.1,86.6c-0.4-0.3-0.9-0.4-1.6-0.4c-0.6,0-1.2,0.2-1.8,1v9.3h-2.3V84.2h2.3V85c0.5-0.6,1.3-1.1,2.2-1.1
			c0.8,0,1.3,0.2,1.7,0.4L182.1,86.6z"/>
		<path fill="#231F20" d="M190.4,96.5h-2.6l-3.1-12.3h2.3l1.5,6.6c0.2,0.8,0.5,2.5,0.6,3.1c0.1-0.6,0.4-2.3,0.6-3.1l1.4-6.6h2.3
			L190.4,96.5z"/>
		<path fill="#231F20" d="M197.6,82.2c-0.8,0-1.4-0.6-1.4-1.4c0-0.8,0.6-1.4,1.4-1.4c0.8,0,1.4,0.6,1.4,1.4
			C199,81.6,198.4,82.2,197.6,82.2z M196.5,96.5V84.2h2.3v12.3H196.5z"/>
		<path fill="#231F20" d="M206.6,96.7l-0.2,0.9c0.2-0.1,0.5-0.2,1-0.2c0.8,0,1.5,0.5,1.5,1.7c0,1.3-0.9,1.9-2.5,1.9
			c-0.9,0-1.6-0.2-2.4-0.7l0.5-0.8c0.5,0.3,1.2,0.4,1.7,0.4c0.8,0,1.2-0.3,1.2-0.8s-0.3-0.8-0.6-0.8c-0.4,0-0.5,0.1-0.9,0.3
			l-0.8-0.3l0.4-1.7c-2-0.5-3.4-2.5-3.4-6.3c0-4.3,1.6-6.5,4.4-6.5c1.8,0,2.8,1,3.5,2.2l-1.6,1.4c-0.6-1-1.1-1.4-1.9-1.4
			c-1.4,0-2,1.6-2,4.3c0,2.6,0.6,4.2,2.1,4.2c0.8,0,1.3-0.4,1.9-1.4l1.6,1.3C209.3,95.8,208.3,96.7,206.6,96.7z"/>
		<path fill="#231F20" d="M217.3,96.7c-2.6,0-4.4-2-4.4-6.4c0-4.3,1.7-6.5,4.5-6.5c2.6,0,4.4,2.1,4.4,6.4
			C221.8,94.6,220,96.7,217.3,96.7z M217.3,86.1c-1.4,0-2.1,1.5-2.1,4.3c0,2.8,0.8,4.2,2.2,4.2c1.4,0,2.2-1.7,2.2-4.2
			C219.5,87.5,218.7,86.1,217.3,86.1z"/>
		<path fill="#231F20" d="M228,96.7c-1.3,0-2.7-0.5-3.8-1.3l0.9-1.9c1.1,0.7,2,1.1,2.9,1.1c1,0,1.6-0.5,1.6-1.3
			c0-0.9-0.7-1.3-2.4-2.3c-1.5-0.9-2.6-1.7-2.6-3.6c0-2.1,1.3-3.4,3.5-3.4c1.2,0,2.4,0.4,3.4,1.1l-0.9,1.9c-0.8-0.6-1.7-0.9-2.5-0.9
			c-0.8,0-1.2,0.5-1.2,1.1c0,0.8,0.4,1.1,2,2.1c1.9,1.1,2.9,1.9,2.9,3.9C231.8,95.4,230.4,96.7,228,96.7z"/>
	</g>
</g>
</svg>
