<?xml version="1.0" encoding="utf-8"?>
<!-- Generator: Adobe Illustrator 18.1.1, SVG Export Plug-In . SVG Version: 6.00 Build 0)  -->
<svg version="1.1" id="Layer_1" xmlns="http://www.w3.org/2000/svg" xmlns:xlink="http://www.w3.org/1999/xlink" x="0px" y="0px"
	 viewBox="0 0 174 78" enable-background="new 0 0 174 78" xml:space="preserve">
<g>
	<path fill="#FFFFFF" d="M78.6,32.4H65.8c0.6-6.5,2.8-9.6,6.3-9.6C76.1,22.8,78.4,26.8,78.6,32.4 M85.7,35.9
		c0-13.2-5.8-19.6-13.4-19.6c-8,0-13.5,6.6-13.5,19.9c0,11.9,4.9,19.6,13.9,19.6c4.8,0,8.7-2.2,11.3-5.1l-4.3-4.4
		c-2.2,2-3.7,2.8-6.9,2.8c-4,0-6.7-3.2-7.1-10.8h19.8C85.7,37.7,85.7,36.6,85.7,35.9z"/>
	<path fill="#FFFFFF" d="M137.2,36.1c0,7.9-2.3,13.1-6.6,13.1c-4.3,0-6.6-4.4-6.6-13.1s2.2-13.1,6.6-13.1
		C134.9,22.9,137.2,27.5,137.2,36.1 M144.2,35.9c0-13.2-5.6-19.6-13.6-19.6c-8.4,0-13.7,6.6-13.7,19.9s5.6,19.6,13.4,19.6
		C138.8,55.8,144.2,49.2,144.2,35.9z"/>
	<path fill="#FFFFFF" d="M172,52.7V30.5c0-9.5-2.6-14.2-9.9-14.2c-3.2,0-5.8,1.4-7.4,3.4v-2.6h-6.9V55l6.9-3V26.3
		c1.4-2.2,3.5-3.5,5.6-3.5c3.5,0,4.7,2.5,4.7,8.8V55L172,52.7"/>
	<path fill="#FFFFFF" d="M106.4,45.8c-1.2,2-3.3,3.5-5.6,3.5c-4,0-5.8-4.1-5.8-14c0-8.9,1.9-12.5,5.5-12.5c2.2,0,4.5,1.1,6,3.4V45.8
		 M113.4,52V2.4L106.4,6v13.1c-1.9-1.9-3.9-2.8-6.6-2.8C92.4,16.3,88,23,88,35.6c0,15.1,4.5,20.1,11.4,20.1c3.4,0,5.3-1.4,7.1-3.3
		V55L113.4,52z"/>
	<path fill="#FFFFFF" d="M58.4,17.4l-8.3,3l-3.9,17.7c-0.5,2.5-1.7,8-2,9.9c-0.3-1.8-1.5-7.2-2.1-9.7l-8-32.8l-8.3-3l14,53.6l9.3-3
		L58.4,17.4"/>
	<path fill="#FFFFFF" d="M2,41.1l8.3-3l9.7-3.6l-6.3-2.4L11.4,33l2.8-12.6c0.5-2.5,1.7-8,2-9.9c0.3,1.8,1.5,7.2,2.1,9.7l8,32.8
		l8.3,3l-14-53.6l-9.3,3L2,41.1"/>
	<g>
		<path fill="#FFFFFF" d="M6.5,62v10.4H4.8V62H2.6v-1.7h6.1V62H6.5z"/>
		<path fill="#FFFFFF" d="M15.7,68.4H11c0.1,1.8,0.7,2.6,1.7,2.6c0.8,0,1.1-0.2,1.6-0.7l1,1c-0.6,0.7-1.5,1.2-2.7,1.2
			c-2.2,0-3.3-1.8-3.3-4.7c0-3.2,1.3-4.7,3.2-4.7c1.8,0,3.2,1.5,3.2,4.7C15.7,68,15.7,68.2,15.7,68.4z M12.5,64.7
			c-0.8,0-1.4,0.7-1.5,2.3h3C14,65.6,13.5,64.7,12.5,64.7z"/>
		<path fill="#FFFFFF" d="M21,72.5c-1.9,0-3.1-1.5-3.1-4.7c0-3.2,1.2-4.7,3.2-4.7c1.3,0,2,0.7,2.5,1.6l-1.2,1c-0.5-0.7-0.8-1-1.4-1
			c-1,0-1.5,1.2-1.5,3.1c0,1.9,0.5,3.1,1.5,3.1c0.6,0,0.9-0.3,1.4-1l1.2,1C23.1,71.9,22.3,72.5,21,72.5z"/>
		<path fill="#FFFFFF" d="M30.1,72.3v-5.6c0-1.5-0.3-2.1-1.1-2.1c-0.5,0-1,0.3-1.3,0.8v6.8H26v-9h1.7v0.6c0.4-0.5,1-0.8,1.8-0.8
			c1.7,0,2.4,1.1,2.4,3.4v5.8H30.1z"/>
		<path fill="#FFFFFF" d="M37.4,72.5c-1.9,0-3.2-1.5-3.2-4.7c0-3.2,1.3-4.7,3.3-4.7c1.9,0,3.2,1.5,3.2,4.7
			C40.7,71,39.4,72.5,37.4,72.5z M37.4,64.7c-1,0-1.6,1.1-1.6,3.1c0,2.1,0.6,3.1,1.6,3.1c1,0,1.6-1.2,1.6-3.1
			C39,65.8,38.5,64.7,37.4,64.7z"/>
		<path fill="#FFFFFF" d="M43.2,72.3V60.7l1.7-0.9v12.5H43.2z"/>
		<path fill="#FFFFFF" d="M50.6,72.5c-1.9,0-3.2-1.5-3.2-4.7c0-3.2,1.3-4.7,3.3-4.7c1.9,0,3.2,1.5,3.2,4.7
			C53.9,71,52.6,72.5,50.6,72.5z M50.6,64.7c-1,0-1.6,1.1-1.6,3.1c0,2.1,0.6,3.1,1.6,3.1c1,0,1.6-1.2,1.6-3.1
			C52.2,65.8,51.7,64.7,50.6,64.7z"/>
		<path fill="#FFFFFF" d="M58.4,75.7l-0.5-1.3c2-0.3,2.5-0.8,2.5-2.5v-0.1c-0.4,0.5-0.9,0.8-1.7,0.8c-1.6,0-2.7-1.2-2.7-4.8
			c0-3,1-4.6,2.8-4.6c0.6,0,1.1,0.2,1.6,0.7v-0.5h1.7v8.2C62.1,74.1,61.1,75.4,58.4,75.7z M60.4,65.5c-0.4-0.6-0.9-0.8-1.4-0.8
			c-0.9,0-1.3,0.8-1.3,3c0,2.4,0.4,3.3,1.4,3.3c0.6,0,1-0.3,1.3-0.8V65.5z"/>
		<path fill="#FFFFFF" d="M65.8,61.9c-0.6,0-1-0.5-1-1c0-0.6,0.5-1,1-1c0.6,0,1,0.5,1,1C66.8,61.4,66.3,61.9,65.8,61.9z M64.9,72.3
			v-9h1.7v9H64.9z"/>
		<path fill="#FFFFFF" d="M73.3,72.3v-0.6c-0.5,0.5-1,0.8-1.9,0.8c-1.3,0-2.5-1-2.5-3c0-2,1.2-3,2.9-3c0.6,0,1,0.1,1.4,0.3V66
			c0-0.9-0.3-1.3-1.2-1.3c-0.6,0-1.1,0.2-1.8,0.6L69.6,64c0.8-0.6,1.8-0.9,2.6-0.9c1.9,0,2.7,0.7,2.7,2.7v6.5H73.3z M73.3,68.4
			c-0.4-0.2-0.7-0.3-1.4-0.3c-0.8,0-1.3,0.4-1.3,1.4c0,1.1,0.4,1.6,1.1,1.6c0.7,0,1.2-0.3,1.5-0.8V68.4z"/>
		<path fill="#FFFFFF" d="M91.5,68.4h-4.7c0.1,1.8,0.7,2.6,1.7,2.6c0.8,0,1.1-0.2,1.6-0.7l1,1c-0.6,0.7-1.5,1.2-2.7,1.2
			c-2.2,0-3.3-1.8-3.3-4.7c0-3.2,1.3-4.7,3.2-4.7c1.8,0,3.2,1.5,3.2,4.7C91.5,68,91.5,68.2,91.5,68.4z M88.3,64.7
			c-0.8,0-1.4,0.7-1.5,2.3h3C89.7,65.6,89.2,64.7,88.3,64.7z"/>
		<path fill="#FFFFFF" d="M101.8,72.3v-5.6c0-1.5-0.1-2.1-0.9-2.1c-0.5,0-1,0.3-1.3,0.8v6.8h-1.7v-5.6c0-1.5-0.1-2.1-0.9-2.1
			c-0.5,0-1,0.3-1.3,0.8v6.8h-1.7v-9h1.7v0.6c0.4-0.5,0.9-0.8,1.7-0.8c0.9,0,1.4,0.3,1.8,1c0.6-0.7,1.3-1,2.1-1
			c1.8,0,2.3,1.2,2.3,3.6v5.7H101.8z"/>
		<path fill="#FFFFFF" d="M116.5,72.5c-1.5,0-2.5-0.8-3.2-2l1.3-1.1c0.7,1,1.2,1.3,2,1.3c0.9,0,1.4-0.6,1.4-1.5c0-0.9-0.4-1.5-2-2.5
			c-1.4-0.9-2.4-1.8-2.4-3.7c0-1.8,1.2-3,3-3c1.4,0,2.2,0.6,2.9,1.6l-1.2,1.1c-0.6-0.8-1-1-1.7-1c-0.8,0-1.3,0.5-1.3,1.3
			c0,0.9,0.4,1.4,1.8,2.3c1.5,1,2.7,1.9,2.7,3.9C119.8,71.2,118.7,72.5,116.5,72.5z"/>
		<path fill="#FFFFFF" d="M128.2,68.4h-4.7c0.1,1.8,0.7,2.6,1.7,2.6c0.8,0,1.1-0.2,1.6-0.7l1,1c-0.6,0.7-1.5,1.2-2.7,1.2
			c-2.2,0-3.3-1.8-3.3-4.7c0-3.2,1.3-4.7,3.2-4.7c1.8,0,3.2,1.5,3.2,4.7C128.2,68,128.2,68.2,128.2,68.4z M125,64.7
			c-0.8,0-1.4,0.7-1.5,2.3h3C126.5,65.6,126,64.7,125,64.7z"/>
		<path fill="#FFFFFF" d="M134.8,65.1c-0.3-0.2-0.6-0.3-1.2-0.3c-0.5,0-0.9,0.2-1.3,0.7v6.8h-1.7v-9h1.7v0.6
			c0.4-0.5,0.9-0.8,1.6-0.8c0.6,0,1,0.1,1.2,0.3L134.8,65.1z"/>
		<path fill="#FFFFFF" d="M140.8,72.3h-1.9l-2.3-9h1.7l1.1,4.9c0.1,0.6,0.4,1.8,0.5,2.3c0.1-0.4,0.3-1.7,0.4-2.3l1-4.8h1.7
			L140.8,72.3z"/>
		<path fill="#FFFFFF" d="M146.1,61.9c-0.6,0-1-0.5-1-1c0-0.6,0.5-1,1-1c0.6,0,1,0.5,1,1C147.1,61.4,146.6,61.9,146.1,61.9z
			 M145.3,72.3v-9h1.7v9H145.3z"/>
		<path fill="#FFFFFF" d="M152.7,72.5l-0.1,0.6c0.2-0.1,0.4-0.2,0.7-0.2c0.6,0,1.1,0.4,1.1,1.2c0,1-0.7,1.4-1.8,1.4
			c-0.7,0-1.2-0.2-1.7-0.5l0.3-0.6c0.4,0.2,0.9,0.3,1.3,0.3c0.6,0,0.8-0.2,0.8-0.6c0-0.4-0.2-0.6-0.4-0.6c-0.3,0-0.4,0.1-0.6,0.2
			l-0.6-0.2l0.3-1.2c-1.5-0.3-2.5-1.8-2.5-4.6c0-3.2,1.2-4.7,3.2-4.7c1.3,0,2,0.7,2.5,1.6l-1.2,1c-0.5-0.7-0.8-1-1.4-1
			c-1,0-1.5,1.2-1.5,3.1c0,1.9,0.5,3.1,1.5,3.1c0.6,0,0.9-0.3,1.4-1l1.2,1C154.6,71.9,154,72.5,152.7,72.5z"/>
		<path fill="#FFFFFF" d="M160.5,72.5c-1.9,0-3.2-1.5-3.2-4.7c0-3.2,1.3-4.7,3.3-4.7c1.9,0,3.2,1.5,3.2,4.7
			C163.8,71,162.5,72.5,160.5,72.5z M160.5,64.7c-1,0-1.6,1.1-1.6,3.1c0,2.1,0.6,3.1,1.6,3.1c1,0,1.6-1.2,1.6-3.1
			C162.1,65.8,161.6,64.7,160.5,64.7z"/>
		<path fill="#FFFFFF" d="M168.4,72.5c-1,0-2-0.4-2.8-1l0.6-1.4c0.8,0.5,1.5,0.8,2.1,0.8c0.7,0,1.2-0.4,1.2-1c0-0.6-0.5-1-1.7-1.7
			c-1.1-0.7-1.9-1.2-1.9-2.7c0-1.6,0.9-2.5,2.6-2.5c0.9,0,1.8,0.3,2.5,0.8l-0.7,1.4c-0.6-0.4-1.3-0.7-1.8-0.7
			c-0.6,0-0.9,0.3-0.9,0.8c0,0.6,0.3,0.8,1.5,1.5c1.4,0.8,2.1,1.4,2.1,2.9C171.2,71.6,170.1,72.5,168.4,72.5z"/>
	</g>
</g>
</svg>
