<?xml version="1.0" encoding="utf-8"?>
<!-- Generator: Adobe Illustrator 18.1.1, SVG Export Plug-In . SVG Version: 6.00 Build 0)  -->
<svg version="1.1" id="Layer_1" xmlns="http://www.w3.org/2000/svg" xmlns:xlink="http://www.w3.org/1999/xlink" x="0px" y="0px"
	 viewBox="0 0 170 74" enable-background="new 0 0 170 74" xml:space="preserve">
<g>
	<path fill="#FFFFFF" d="M76.9,30.1H64.1c0.6-6.5,2.8-9.6,6.3-9.6C74.4,20.5,76.7,24.5,76.9,30.1 M84,33.7C84,20.4,78.2,14,70.6,14
		c-8,0-13.5,6.6-13.5,19.9c0,11.9,4.9,19.6,13.9,19.6c4.8,0,8.7-2.2,11.3-5.1L78.1,44c-2.2,2-3.7,2.8-6.9,2.8c-4,0-6.7-3.2-7.1-10.8
		h19.8C84,35.4,84,34.3,84,33.7z"/>
	<path fill="#FFFFFF" d="M135.6,33.8c0,7.9-2.3,13.1-6.6,13.1c-4.3,0-6.6-4.4-6.6-13.1s2.2-13.1,6.6-13.1
		C133.2,20.7,135.6,25.2,135.6,33.8 M142.6,33.7C142.6,20.4,137,14,129,14c-8.4,0-13.7,6.6-13.7,19.9s5.6,19.6,13.4,19.6
		C137.1,53.5,142.6,46.9,142.6,33.7z"/>
	<path fill="#FFFFFF" d="M170.3,50.5V28.2c0-9.5-2.6-14.2-9.9-14.2c-3.2,0-5.8,1.4-7.4,3.4v-2.6h-6.9v37.9l6.9-3V24.1
		c1.4-2.2,3.5-3.5,5.6-3.5c3.5,0,4.7,2.5,4.7,8.8v23.3L170.3,50.5"/>
	<path fill="#FFFFFF" d="M104.7,43.5c-1.2,2-3.3,3.5-5.6,3.5c-4,0-5.8-4.1-5.8-14c0-8.9,1.9-12.5,5.5-12.5c2.2,0,4.5,1.1,6,3.4V43.5
		 M111.7,49.7V0.1l-6.9,3.6v13.1c-1.9-1.9-3.9-2.8-6.6-2.8c-7.5,0-11.9,6.7-11.9,19.3c0,15.1,4.5,20.1,11.4,20.1
		c3.4,0,5.3-1.4,7.1-3.3v2.5L111.7,49.7z"/>
	<path fill="#FFFFFF" d="M56.7,15.1l-8.3,3l-3.9,17.7c-0.5,2.5-1.7,8-2,9.9c-0.3-1.8-1.5-7.2-2.1-9.7l-8-32.8l-8.3-3l14,53.6l9.3-3
		L56.7,15.1"/>
	<path fill="#FFFFFF" d="M0.3,38.8l8.3-3l9.7-3.6L12,29.9l-2.3,0.8l2.8-12.6c0.5-2.5,1.7-8,2-9.9c0.3,1.8,1.5,7.2,2.1,9.7l8,32.8
		l8.3,3l-14-53.6l-9.3,3L0.3,38.8"/>
	<g>
		<path fill="#FFFFFF" d="M4.8,59.7v10.4H3.1V59.7H0.9V58H7v1.7H4.8z"/>
		<path fill="#FFFFFF" d="M14,66.1H9.3c0.1,1.8,0.7,2.6,1.7,2.6c0.8,0,1.1-0.2,1.6-0.7l1,1c-0.6,0.7-1.5,1.2-2.7,1.2
			c-2.2,0-3.3-1.8-3.3-4.7c0-3.2,1.3-4.7,3.2-4.7c1.8,0,3.2,1.5,3.2,4.7C14.1,65.7,14.1,66,14,66.1z M10.8,62.4
			c-0.8,0-1.4,0.7-1.5,2.3h3C12.3,63.4,11.8,62.4,10.8,62.4z"/>
		<path fill="#FFFFFF" d="M19.3,70.3c-1.9,0-3.1-1.5-3.1-4.7c0-3.2,1.2-4.7,3.2-4.7c1.3,0,2,0.7,2.5,1.6l-1.2,1
			c-0.5-0.7-0.8-1-1.4-1c-1,0-1.5,1.2-1.5,3.1c0,1.9,0.5,3.1,1.5,3.1c0.6,0,0.9-0.3,1.4-1l1.2,1C21.4,69.6,20.7,70.3,19.3,70.3z"/>
		<path fill="#FFFFFF" d="M28.5,70.1v-5.6c0-1.5-0.3-2.1-1.1-2.1c-0.5,0-1,0.3-1.3,0.8v6.8h-1.7v-9H26v0.6c0.4-0.5,1-0.8,1.8-0.8
			c1.7,0,2.4,1.1,2.4,3.4v5.8H28.5z"/>
		<path fill="#FFFFFF" d="M35.7,70.3c-1.9,0-3.2-1.5-3.2-4.7c0-3.2,1.3-4.7,3.3-4.7c1.9,0,3.2,1.5,3.2,4.7
			C39,68.7,37.7,70.3,35.7,70.3z M35.7,62.4c-1,0-1.6,1.1-1.6,3.1c0,2.1,0.6,3.1,1.6,3.1s1.6-1.2,1.6-3.1
			C37.3,63.5,36.8,62.4,35.7,62.4z"/>
		<path fill="#FFFFFF" d="M41.5,70.1V58.4l1.7-0.9v12.5H41.5z"/>
		<path fill="#FFFFFF" d="M48.9,70.3c-1.9,0-3.2-1.5-3.2-4.7c0-3.2,1.3-4.7,3.3-4.7c1.9,0,3.2,1.5,3.2,4.7
			C52.2,68.7,50.9,70.3,48.9,70.3z M49,62.4c-1,0-1.6,1.1-1.6,3.1c0,2.1,0.6,3.1,1.6,3.1s1.6-1.2,1.6-3.1C50.6,63.5,50,62.4,49,62.4
			z"/>
		<path fill="#FFFFFF" d="M56.7,73.4l-0.5-1.3c2-0.3,2.5-0.8,2.5-2.5v-0.1c-0.4,0.5-0.9,0.8-1.7,0.8c-1.6,0-2.7-1.2-2.7-4.8
			c0-3,1-4.6,2.8-4.6c0.6,0,1.1,0.2,1.6,0.7v-0.5h1.7v8.2C60.4,71.9,59.5,73.1,56.7,73.4z M58.8,63.2c-0.4-0.6-0.9-0.8-1.4-0.8
			c-0.9,0-1.3,0.8-1.3,3c0,2.4,0.4,3.3,1.4,3.3c0.6,0,1-0.3,1.3-0.8V63.2z"/>
		<path fill="#FFFFFF" d="M64.1,59.6c-0.6,0-1-0.5-1-1c0-0.6,0.5-1,1-1c0.6,0,1,0.5,1,1C65.1,59.2,64.6,59.6,64.1,59.6z M63.2,70.1
			v-9h1.7v9H63.2z"/>
		<path fill="#FFFFFF" d="M71.6,70.1v-0.6c-0.5,0.5-1,0.8-1.9,0.8c-1.3,0-2.5-1-2.5-3c0-2,1.2-3,2.9-3c0.6,0,1,0.1,1.4,0.3v-0.9
			c0-0.9-0.3-1.3-1.2-1.3c-0.6,0-1.1,0.2-1.8,0.6L68,61.7c0.8-0.6,1.8-0.9,2.6-0.9c1.9,0,2.7,0.7,2.7,2.7v6.5H71.6z M71.6,66.1
			c-0.4-0.2-0.7-0.3-1.4-0.3c-0.8,0-1.3,0.4-1.3,1.4c0,1.1,0.4,1.6,1.1,1.6c0.7,0,1.2-0.3,1.5-0.8V66.1z"/>
		<path fill="#FFFFFF" d="M89.8,66.1H85c0.1,1.8,0.7,2.6,1.7,2.6c0.8,0,1.1-0.2,1.6-0.7l1,1c-0.6,0.7-1.5,1.2-2.7,1.2
			c-2.2,0-3.3-1.8-3.3-4.7c0-3.2,1.3-4.7,3.2-4.7c1.8,0,3.2,1.5,3.2,4.7C89.8,65.7,89.8,66,89.8,66.1z M86.6,62.4
			c-0.8,0-1.4,0.7-1.5,2.3h3C88.1,63.4,87.5,62.4,86.6,62.4z"/>
		<path fill="#FFFFFF" d="M100.1,70.1v-5.6c0-1.5-0.1-2.1-0.9-2.1c-0.5,0-1,0.3-1.3,0.8v6.8h-1.7v-5.6c0-1.5-0.1-2.1-0.9-2.1
			c-0.5,0-1,0.3-1.3,0.8v6.8h-1.7v-9h1.7v0.6c0.4-0.5,0.9-0.8,1.7-0.8c0.9,0,1.4,0.3,1.8,1c0.6-0.7,1.3-1,2.1-1
			c1.8,0,2.3,1.2,2.3,3.6v5.7H100.1z"/>
		<path fill="#FFFFFF" d="M114.8,70.3c-1.5,0-2.5-0.8-3.2-2l1.3-1.1c0.7,1,1.2,1.3,2,1.3c0.9,0,1.4-0.6,1.4-1.5c0-0.9-0.4-1.5-2-2.5
			c-1.4-0.9-2.4-1.8-2.4-3.7c0-1.8,1.2-3,3-3c1.4,0,2.2,0.6,2.9,1.6l-1.2,1.1c-0.6-0.8-1-1-1.7-1c-0.8,0-1.3,0.5-1.3,1.3
			c0,0.9,0.4,1.4,1.8,2.3c1.5,1,2.7,1.9,2.7,3.9C118.1,68.9,117,70.3,114.8,70.3z"/>
		<path fill="#FFFFFF" d="M126.5,66.1h-4.7c0.1,1.8,0.7,2.6,1.7,2.6c0.8,0,1.1-0.2,1.6-0.7l1,1c-0.6,0.7-1.5,1.2-2.7,1.2
			c-2.2,0-3.3-1.8-3.3-4.7c0-3.2,1.3-4.7,3.2-4.7c1.8,0,3.2,1.5,3.2,4.7C126.6,65.7,126.6,66,126.5,66.1z M123.3,62.4
			c-0.8,0-1.4,0.7-1.5,2.3h3C124.8,63.4,124.3,62.4,123.3,62.4z"/>
		<path fill="#FFFFFF" d="M133.1,62.8c-0.3-0.2-0.6-0.3-1.2-0.3c-0.5,0-0.9,0.2-1.3,0.7v6.8H129v-9h1.7v0.6c0.4-0.5,0.9-0.8,1.6-0.8
			c0.6,0,1,0.1,1.2,0.3L133.1,62.8z"/>
		<path fill="#FFFFFF" d="M139.1,70.1h-1.9l-2.3-9h1.7l1.1,4.9c0.1,0.6,0.4,1.8,0.5,2.3c0.1-0.4,0.3-1.7,0.4-2.3l1-4.8h1.7
			L139.1,70.1z"/>
		<path fill="#FFFFFF" d="M144.4,59.6c-0.6,0-1-0.5-1-1c0-0.6,0.5-1,1-1c0.6,0,1,0.5,1,1C145.4,59.2,145,59.6,144.4,59.6z
			 M143.6,70.1v-9h1.7v9H143.6z"/>
		<path fill="#FFFFFF" d="M151,70.3l-0.1,0.6c0.2-0.1,0.4-0.2,0.7-0.2c0.6,0,1.1,0.4,1.1,1.2c0,1-0.7,1.4-1.8,1.4
			c-0.7,0-1.2-0.2-1.7-0.5l0.3-0.6c0.4,0.2,0.9,0.3,1.3,0.3c0.6,0,0.8-0.2,0.8-0.6c0-0.4-0.2-0.6-0.4-0.6c-0.3,0-0.4,0.1-0.6,0.2
			l-0.6-0.2l0.3-1.2c-1.5-0.3-2.5-1.8-2.5-4.6c0-3.2,1.2-4.7,3.2-4.7c1.3,0,2,0.7,2.5,1.6l-1.2,1c-0.5-0.7-0.8-1-1.4-1
			c-1,0-1.5,1.2-1.5,3.1c0,1.9,0.5,3.1,1.5,3.1c0.6,0,0.9-0.3,1.4-1l1.2,1C153,69.6,152.3,70.2,151,70.3z"/>
		<path fill="#FFFFFF" d="M158.8,70.3c-1.9,0-3.2-1.5-3.2-4.7c0-3.2,1.3-4.7,3.3-4.7c1.9,0,3.2,1.5,3.2,4.7
			C162.1,68.7,160.8,70.3,158.8,70.3z M158.8,62.4c-1,0-1.6,1.1-1.6,3.1c0,2.1,0.6,3.1,1.6,3.1c1,0,1.6-1.2,1.6-3.1
			C160.4,63.5,159.9,62.4,158.8,62.4z"/>
		<path fill="#FFFFFF" d="M166.7,70.3c-1,0-2-0.4-2.8-1l0.6-1.4c0.8,0.5,1.5,0.8,2.1,0.8c0.7,0,1.2-0.4,1.2-1c0-0.6-0.5-1-1.7-1.7
			c-1.1-0.7-1.9-1.2-1.9-2.7c0-1.6,0.9-2.5,2.6-2.5c0.9,0,1.8,0.3,2.5,0.8l-0.7,1.4c-0.6-0.4-1.3-0.7-1.8-0.7
			c-0.6,0-0.9,0.3-0.9,0.8c0,0.6,0.3,0.8,1.5,1.5c1.4,0.8,2.1,1.4,2.1,2.9C169.5,69.3,168.4,70.3,166.7,70.3z"/>
	</g>
</g>
</svg>
