<?xml version="1.0" encoding="utf-8"?>
<!-- Generator: Adobe Illustrator 18.1.1, SVG Export Plug-In . SVG Version: 6.00 Build 0)  -->
<svg version="1.1" id="Layer_1" xmlns="http://www.w3.org/2000/svg" xmlns:xlink="http://www.w3.org/1999/xlink" x="0px" y="0px"
	 viewBox="0 0 38 38" enable-background="new 0 0 38 38" xml:space="preserve">
<path fill="#FFFFFF" d="M13.6,29H9.3V13.9h4.3V29z M11.6,13c-1.1,0-2-0.9-2-2s0.9-2,2-2c1.1,0,2,0.9,2,2C13.6,12.1,12.7,13,11.6,13z
	 M28.7,29h-4.3v-9.3c0-1.1-0.3-1.9-1.7-1.9c-2.2,0-2.7,1.9-2.7,1.9V29h-4.3V13.9h4.3v1.4c0.6-0.5,2.2-1.4,4.3-1.4
	c1.4,0,4.3,0.8,4.3,5.9V29z"/>
</svg>
